<svg xmlns="http://www.w3.org/2000/svg" viewBox="0 0 103 91" xmlns:xlink="http://www.w3.org/1999/xlink"><defs><radialGradient id="c" cy="26.42%" r="100%" fx="50%" fy="26.42%"><stop stop-color="#96FFFA" offset="0%"/><stop stop-color="#00D6BF" offset="100%"/></radialGradient><path id="d" d="M36 72a36 36 0 0 0 36-36c0-3.44-72-3.44-72 0a36 36 0 0 0 36 36z"/><filter id="e" width="200%" height="200%" x="-50%" y="-50%" filterUnits="objectBoundingBox"><feGaussianBlur stdDeviation="8" in="SourceAlpha" result="shadowBlurInner1"/><feOffset dy="1" in="shadowBlurInner1" result="shadowOffsetInner1"/><feComposite in="shadowOffsetInner1" in2="SourceAlpha" operator="arithmetic" k2="-1" k3="1" result="shadowInnerInner1"/><feColorMatrix values="0 0 0 0 0 0 0 0 0 0 0 0 0 0 0 0 0 0 0.5 0" in="shadowInnerInner1"/></filter><path id="a" d="M69.52 22.84A36 36 0 1 1 48.07 2.07L48 2l1.02.43c.58.22 1.15.46 1.7.71L103 25l-3 8-30.48-10.16z"/><filter id="f" width="200%" height="200%" x="-50%" y="-50%" filterUnits="objectBoundingBox"><feMorphology radius="3" in="SourceAlpha" result="shadowSpreadInner1"/><feGaussianBlur stdDeviation=".5" in="shadowSpreadInner1" result="shadowBlurInner1"/><feOffset in="shadowBlurInner1" result="shadowOffsetInner1"/><feComposite in="shadowOffsetInner1" in2="SourceAlpha" operator="arithmetic" k2="-1" k3="1" result="shadowInnerInner1"/><feColorMatrix values="0 0 0 0 0.82745098 0 0 0 0 0.82745098 0 0 0 0 0.82745098 0 0 0 0.5 0" in="shadowInnerInner1" result="shadowMatrixInner1"/><feGaussianBlur stdDeviation="9.5" in="SourceAlpha" result="shadowBlurInner2"/><feOffset dy="17" in="shadowBlurInner2" result="shadowOffsetInner2"/><feComposite in="shadowOffsetInner2" in2="SourceAlpha" operator="arithmetic" k2="-1" k3="1" result="shadowInnerInner2"/><feColorMatrix values="0 0 0 0 1 0 0 0 0 1 0 0 0 0 1 0 0 0 1 0" in="shadowInnerInner2" result="shadowMatrixInner2"/><feMerge><feMergeNode in="shadowMatrixInner1"/><feMergeNode in="shadowMatrixInner2"/></feMerge></filter><mask id="g" width="103" height="72" x="0" y="0" fill="white"><use xlink:href="#a"/></mask><path id="b" d="M5.88 6H3a3 3 0 1 1 0-6h59a3 3 0 1 1 0 6h-2.88l4.33 23.05A2.4 2.4 0 0 1 61 32a3.75 3.75 0 0 1-3.55-2.95L55.94 21H35v8a3 3 0 0 1-6 0v-8H9.06l-1.5 8.05A3.76 3.76 0 0 1 4 32a2.4 2.4 0 0 1-2.45-2.95L5.88 6zm6 0H29v9H10.19l1.69-9zm41.24 0H35v9h19.81l-1.69-9z"/><filter id="h" width="200%" height="200%" x="-50%" y="-50%" filterUnits="objectBoundingBox"><feMorphology radius="1" in="SourceAlpha" result="shadowSpreadInner1"/><feGaussianBlur stdDeviation="1.5" in="shadowSpreadInner1" result="shadowBlurInner1"/><feOffset in="shadowBlurInner1" result="shadowOffsetInner1"/><feComposite in="shadowOffsetInner1" in2="SourceAlpha" operator="arithmetic" k2="-1" k3="1" result="shadowInnerInner1"/><feColorMatrix values="0 0 0 0 0 0 0 0 0 0 0 0 0 0 0 0 0 0 0.5 0" in="shadowInnerInner1"/></filter><mask id="i" width="65" height="32" x="0" y="0" fill="white"><use xlink:href="#b"/></mask></defs><g fill="none" fill-rule="evenodd"><use fill="url(#c)" xlink:href="#d"/><use fill="black" filter="url(#e)" xlink:href="#d"/><ellipse cx="36" cy="36" fill="#00F1DA" rx="36" ry="4"/><g><use fill="#000000" fill-opacity=".06" xlink:href="#a"/><use fill="black" filter="url(#f)" xlink:href="#a"/><use stroke="#9C9C9C" stroke-opacity=".3" stroke-width="2" mask="url(#g)" xlink:href="#a"/></g><g transform="translate(3 59)"><use fill="#414141" xlink:href="#b"/><use fill="black" filter="url(#h)" xlink:href="#b"/><use stroke="#100E0E" stroke-width="2" mask="url(#i)" xlink:href="#b"/></g></g></svg>