<svg xmlns="http://www.w3.org/2000/svg" width="53" height="52" viewBox="-10 -10 53 52"><g fill="#05BF85" fill-rule="evenodd"><path d="M20.14 2.13L33 10l-1 2-6.65-3.08a12.99 12.99 0 0 1-1.54 11.3c.12.13.19.3.19.48v.6a.7.7 0 0 1-.7.7h-.92l-.02.02 1.64 9.3c.07.38-.2.68-.57.68h-.74a.86.86 0 0 1-.81-.68L21.29 28H16.7a.7.7 0 0 1-.7-.7v-.6c0-.39.32-.7.7-.7h4.24l-.42-2.4A12.93 12.93 0 0 1 14 25.97v5.34a.7.7 0 0 1-.7.7h-.6a.7.7 0 0 1-.7-.7V28H4.72l-.59 3.32a.86.86 0 0 1-.81.68h-.73a.56.56 0 0 1-.58-.68l1.64-9.29a13.1 13.1 0 0 1-.03-.03H2.7a.7.7 0 0 1-.71-.7v-.6a.7.7 0 0 1 .19-.48A13 13 0 0 1 20.14 2.13zM5.49 23.61L5.07 26H12v-.04a12.93 12.93 0 0 1-6.5-2.35zM13 24a11 11 0 1 0 0-22 11 11 0 0 0 0 22z"/><path fill-opacity=".44" d="M13 24a11 11 0 0 0 11-11s-22-.1-22 0a11 11 0 0 0 11 11z"/></g></svg>
