<svg width="1714" height="1666" viewBox="0 0 1714 1666" fill="none" xmlns="http://www.w3.org/2000/svg">
<path fill-rule="evenodd" clip-rule="evenodd" d="M831.029 1091.33C241.254 1085.09 63.76 839.887 31.1553 662.885C43.5976 894.047 64.1902 1246.36 74.5695 1313.82C89.402 1410.23 315.598 1580.81 864.402 1632.72C1303.45 1674.25 1578.84 1548.67 1661.65 1480.69L1686.13 623.793C1660.62 782.688 1453.55 1097.92 831.029 1091.33ZM474.593 1234.14C474.593 1284.55 449.635 1325.41 418.848 1325.41C388.061 1325.41 363.103 1284.55 363.103 1234.14C363.103 1183.73 388.061 1142.87 418.848 1142.87C449.635 1142.87 474.593 1183.73 474.593 1234.14ZM1215.06 1374.09C1245.85 1374.09 1270.8 1333.22 1270.8 1282.82C1270.8 1232.41 1245.85 1191.55 1215.06 1191.55C1184.27 1191.55 1159.31 1232.41 1159.31 1282.82C1159.31 1333.22 1184.27 1374.09 1215.06 1374.09Z" fill="#FF729F"/>
<path d="M31.1553 662.885L55.7416 658.356L6.19139 664.228L31.1553 662.885ZM831.029 1091.33L830.765 1116.33L830.765 1116.33L831.029 1091.33ZM74.5695 1313.82L99.2788 1310.02L74.5695 1313.82ZM864.402 1632.72L862.048 1657.61L862.048 1657.61L864.402 1632.72ZM1661.65 1480.69L1677.51 1500.01L1686.32 1492.79L1686.64 1481.4L1661.65 1480.69ZM1686.13 623.793L1711.12 624.507L1661.45 619.83L1686.13 623.793ZM968.23 27.1004L966.901 52.065L968.23 27.1004ZM26.364 572.196L1.46221 569.983L26.364 572.196ZM1686.13 623.793L1661.14 623.079L1710.82 627.757L1686.13 623.793ZM31.1553 662.885L6.5689 667.413L56.1191 661.541L31.1553 662.885ZM6.5689 667.413C24.0102 762.098 80.0624 873.571 207.966 961.729C335.479 1049.62 532.662 1113.18 830.765 1116.33L831.294 1066.34C539.621 1063.25 353.17 1001.09 236.341 920.561C119.902 840.305 70.905 740.674 55.7416 658.356L6.5689 667.413ZM99.2788 1310.02C89.1452 1244.15 68.6162 893.722 56.1191 661.541L6.19139 664.228C18.5789 894.373 39.2352 1248.56 49.8602 1317.62L99.2788 1310.02ZM866.757 1607.83C594.393 1582.07 403.715 1526.99 280.097 1467.44C218.262 1437.65 173.807 1407.03 144.307 1378.92C114.353 1350.39 101.794 1326.37 99.2788 1310.02L49.8602 1317.62C54.761 1349.48 76.0392 1382.94 109.818 1415.12C144.052 1447.74 193.228 1481.09 258.396 1512.48C388.786 1575.3 585.608 1631.46 862.048 1657.61L866.757 1607.83ZM1645.79 1461.37C1569.22 1524.22 1300.86 1648.9 866.757 1607.83L862.048 1657.61C1306.03 1699.61 1588.46 1573.12 1677.51 1500.01L1645.79 1461.37ZM1661.14 623.079L1636.66 1479.98L1686.64 1481.4L1711.12 624.507L1661.14 623.079ZM830.765 1116.33C1462.67 1123.02 1682.9 801.604 1710.82 627.757L1661.45 619.83C1638.34 763.773 1444.42 1072.82 831.294 1066.34L830.765 1116.33ZM418.848 1350.41C446.253 1350.41 467.009 1332.32 479.601 1311.71C492.456 1290.66 499.593 1263.17 499.593 1234.14H449.593C449.593 1255.51 444.251 1273.66 436.93 1285.65C429.346 1298.06 422.23 1300.41 418.848 1300.41V1350.41ZM338.103 1234.14C338.103 1263.17 345.24 1290.66 358.095 1311.71C370.687 1332.32 391.443 1350.41 418.848 1350.41V1300.41C415.466 1300.41 408.35 1298.06 400.766 1285.65C393.445 1273.66 388.103 1255.51 388.103 1234.14H338.103ZM418.848 1117.87C391.443 1117.87 370.687 1135.96 358.095 1156.57C345.24 1177.62 338.103 1205.11 338.103 1234.14H388.103C388.103 1212.77 393.445 1194.62 400.766 1182.63C408.35 1170.22 415.466 1167.87 418.848 1167.87V1117.87ZM499.593 1234.14C499.593 1205.11 492.456 1177.62 479.601 1156.57C467.009 1135.96 446.253 1117.87 418.848 1117.87V1167.87C422.23 1167.87 429.346 1170.22 436.93 1182.63C444.251 1194.62 449.593 1212.77 449.593 1234.14H499.593ZM1245.8 1282.82C1245.8 1304.19 1240.46 1322.34 1233.14 1334.32C1225.56 1346.74 1218.44 1349.09 1215.06 1349.09V1399.09C1242.46 1399.09 1263.22 1381 1275.81 1360.39C1288.67 1339.34 1295.8 1311.85 1295.8 1282.82H1245.8ZM1215.06 1216.55C1218.44 1216.55 1225.56 1218.89 1233.14 1231.31C1240.46 1243.3 1245.8 1261.44 1245.8 1282.82H1295.8C1295.8 1253.78 1288.67 1226.3 1275.81 1205.25C1263.22 1184.63 1242.46 1166.55 1215.06 1166.55V1216.55ZM1184.31 1282.82C1184.31 1261.44 1189.66 1243.3 1196.98 1231.31C1204.56 1218.89 1211.68 1216.55 1215.06 1216.55V1166.55C1187.65 1166.55 1166.9 1184.63 1154.31 1205.25C1141.45 1226.3 1134.31 1253.78 1134.31 1282.82H1184.31ZM1215.06 1349.09C1211.68 1349.09 1204.56 1346.74 1196.98 1334.32C1189.66 1322.34 1184.31 1304.19 1184.31 1282.82H1134.31C1134.31 1311.85 1141.45 1339.34 1154.31 1360.39C1166.9 1381 1187.65 1399.09 1215.06 1399.09V1349.09ZM1712.34 568.559C1702.88 504.185 1678.85 370.478 1574.99 248.665C1470.52 126.126 1288.35 19.1125 969.56 2.13573L966.901 52.065C1274.79 68.4613 1443.04 170.957 1536.95 281.104C1631.47 391.977 1653.8 514.131 1662.87 575.834L1712.34 568.559ZM969.56 2.13573C650.183 -14.8725 412.556 81.5633 252.602 204.752C172.766 266.238 112.308 334.365 70.7072 398.301C29.4162 461.761 5.66307 522.723 1.46221 569.983L51.2658 574.41C54.4813 538.236 73.8352 485.173 112.617 425.57C151.089 366.441 207.669 302.467 283.111 244.365C433.713 128.379 659.603 35.7 966.901 52.065L969.56 2.13573ZM1711.12 624.507L1712.6 572.91L1662.62 571.482L1661.14 623.079L1711.12 624.507ZM1710.82 627.757C1714.32 605.943 1714.88 585.782 1712.34 568.559L1662.87 575.834C1664.49 586.79 1664.37 601.661 1661.45 619.829L1710.82 627.757ZM1.3974 573.488C2.79221 600.454 4.4082 631.099 6.19139 664.228L56.1191 661.541C54.3377 628.444 52.7235 597.834 51.3307 570.905L1.3974 573.488ZM1.46221 569.983C-1.09096 598.706 0.0247632 631.887 6.5689 667.413L55.7416 658.356C50.006 627.218 49.118 598.573 51.2658 574.41L1.46221 569.983Z" fill="#FF729F"/>
<path d="M879.076 1443.3C878.217 1428.72 883.9 1405.13 913.503 1427.44C943.105 1449.76 951.808 1424.78 952.459 1409.5" stroke="#FF729F" stroke-width="25" stroke-linecap="round"/>
<path d="M609.114 317.258C537.181 382.717 387.273 517.95 363.103 535.214L609.114 712.169L840.018 479.106L609.114 317.258Z" stroke="#FF729F" stroke-width="50"/>
<path d="M855.124 256.834L710.539 453.211C816.28 510.757 1029.92 625.849 1038.55 625.849C1047.18 625.849 1116.96 510.757 1150.77 453.211L855.124 256.834Z" stroke="#FF729F" stroke-width="50"/>
<path d="M995.376 774.1C879.252 790.47 642.4 823.21 623.983 823.21L610.171 626.771L785.125 522.413L995.376 774.1Z" stroke="#FF729F" stroke-width="50"/>
<path d="M1242.65 410.319C1250.84 378.746 1260.19 363.544 1280.83 367.41C1301.46 371.277 1304.04 394.24 1298.2 422.743C1292.35 451.247 1263.85 469.518 1251.42 465.864C1239 462.21 1232.42 449.785 1242.65 410.319Z" stroke="#FF729F" stroke-width="25"/>
<path d="M1331.32 679.995C1339.51 648.422 1365.32 627.697 1385.95 631.563C1406.58 635.43 1411.85 654.653 1397.21 691.259C1382.57 727.864 1353.88 733.771 1341.46 730.117C1329.03 726.462 1321.09 719.461 1331.32 679.995Z" stroke="#FF729F" stroke-width="25"/>
<path d="M1117.8 728.416C1152.13 704.874 1189.3 703.67 1200.61 721.64C1211.91 739.61 1198.37 761.094 1154.88 784.796C1111.4 808.498 1085.51 793.967 1079.9 781.918C1074.29 769.869 1074.9 757.844 1117.8 728.416Z" stroke="#FF729F" stroke-width="25"/>
<path d="M815.265 927.275C850.497 940.662 870.561 965.463 863.004 980.78C855.448 996.098 832.46 995.984 792.385 976.427C752.311 956.87 749.789 933.084 755.87 924.154C761.952 915.223 771.226 910.543 815.265 927.275Z" stroke="#FF729F" stroke-width="25"/>
<path d="M440.374 792.629C461.961 776.373 475.87 770.19 486.637 783.053C497.404 795.916 503.543 816.747 475.321 833.005C447.1 849.263 426.231 838.659 420.441 830.059C414.652 821.458 413.39 812.949 440.374 792.629Z" stroke="#FF729F" stroke-width="25"/>
<path d="M269.352 450.241C253.858 428.1 271.531 396.258 284.762 385.946C297.992 375.634 322.503 395.918 337.768 424.688C353.033 453.459 339.971 469.483 331.173 474.97C322.376 480.456 288.719 477.917 269.352 450.241Z" stroke="#FF729F" stroke-width="25"/>
<path d="M637.809 216.143C653.022 193.809 700.753 201.134 715.084 209.851C729.415 218.569 730.192 260.329 708.698 284.799C687.203 309.268 665.015 299.084 656.768 292.802C648.52 286.52 618.792 244.061 637.809 216.143Z" stroke="#FF729F" stroke-width="25"/>
</svg>
