<svg width="1941" height="1688" viewBox="0 0 1941 1688" fill="none" xmlns="http://www.w3.org/2000/svg">
<path d="M65.7284 676.52C909.468 947.722 1622.63 776.965 1873.74 657.686C1905.13 620.02 1949.07 522.088 1873.74 431.688C1798.41 341.287 1704.24 331.24 1666.57 337.517C1654.01 281.017 1587.47 156.718 1421.73 111.519C1256 66.3191 1101.56 130.352 1045.06 168.018C1045.06 124.073 992.328 39.9504 781.393 55.0171C570.458 70.0839 480.057 186.85 461.224 243.349C392.17 224.516 223.93 216.983 103.395 337.517C-17.1389 458.051 28.0615 613.741 65.7284 676.52Z" stroke="#FCD6F6" stroke-width="50" stroke-linecap="round"/>
<path fill-rule="evenodd" clip-rule="evenodd" d="M65.7217 1147.36L65.7217 676.523C909.461 947.725 1622.62 776.968 1873.74 657.689C1873.74 657.689 1873.74 1072.03 1854.9 1203.86C1836.07 1335.69 1457.87 1397.08 1402.9 1392.2C1349.84 1387.48 1365.23 1467.53 1440.57 1486.36C1515.9 1505.2 1553.57 1542.86 1507.47 1580.53C1461.38 1618.2 1308.73 1655.86 1214.56 1618.2C1141.56 1589 1125.15 1537.16 1112.69 1497.78C1109.08 1486.36 1105.8 1475.99 1101.56 1467.53C1082.73 1429.86 856.728 1448.7 819.061 1467.53C795.121 1479.5 794.004 1491.47 791.534 1517.95V1517.95C790.118 1533.13 788.257 1553.08 781.394 1580.53C762.56 1655.86 668.393 1674.7 611.893 1674.7C555.392 1674.7 442.391 1655.86 442.391 1599.36C442.391 1566.06 468.566 1558.93 497.773 1550.97C518.115 1545.43 539.928 1539.49 555.392 1524.03C585.526 1493.9 567.948 1448.7 555.392 1429.86C197.556 1392.2 65.7217 1222.69 65.7217 1147.36ZM1619.32 1130.78C1622.98 1161.77 1609.2 1188.87 1588.54 1191.31C1567.88 1193.75 1548.17 1170.61 1544.5 1139.62C1540.84 1108.63 1554.62 1081.53 1575.28 1079.09C1595.94 1076.65 1615.66 1099.79 1619.32 1130.78ZM1095.63 1192.67C1099.29 1223.66 1085.51 1250.76 1064.85 1253.2C1044.19 1255.64 1024.47 1232.5 1020.81 1201.51C1017.15 1170.52 1030.93 1143.42 1051.59 1140.98C1072.25 1138.54 1091.96 1161.68 1095.63 1192.67Z" fill="#FCD6F6"/>
<path d="M65.7217 676.523L69.5468 664.623L53.2217 659.375V676.523H65.7217ZM1873.74 657.689H1886.24V637.913L1868.37 646.398L1873.74 657.689ZM1402.9 1392.2L1404 1379.74L1404 1379.74L1402.9 1392.2ZM1440.57 1486.36L1437.53 1498.49L1437.53 1498.49L1440.57 1486.36ZM1507.47 1580.53L1499.56 1570.85L1499.56 1570.85L1507.47 1580.53ZM1214.56 1618.2L1209.92 1629.8L1209.92 1629.8L1214.56 1618.2ZM1112.69 1497.78L1100.77 1501.55L1100.77 1501.55L1112.69 1497.78ZM1101.56 1467.53L1090.38 1473.12L1090.38 1473.12L1101.56 1467.53ZM819.061 1467.53L824.651 1478.71L824.651 1478.71L819.061 1467.53ZM791.534 1517.95L779.088 1516.78L779.034 1517.36V1517.95H791.534ZM791.534 1517.95L803.98 1519.11L804.034 1518.53V1517.95H791.534ZM781.394 1580.53L769.267 1577.5L769.267 1577.5L781.394 1580.53ZM497.773 1550.97L501.058 1563.04L501.058 1563.04L497.773 1550.97ZM555.392 1524.03L564.231 1532.87L564.231 1532.87L555.392 1524.03ZM555.392 1429.86L565.793 1422.93L562.537 1418.05L556.701 1417.43L555.392 1429.86ZM1619.32 1130.78L1631.73 1129.31L1631.73 1129.31L1619.32 1130.78ZM1544.5 1139.62L1532.09 1141.09L1532.09 1141.09L1544.5 1139.62ZM1095.63 1192.67L1083.21 1194.13L1083.21 1194.13L1095.63 1192.67ZM1020.81 1201.51L1033.23 1200.04L1033.23 1200.04L1020.81 1201.51ZM53.2217 676.523L53.2217 1147.36H78.2217L78.2217 676.523H53.2217ZM1868.37 646.398C1619.99 764.381 910.109 934.803 69.5468 664.623L61.8966 688.423C908.814 960.647 1625.26 789.555 1879.1 668.98L1868.37 646.398ZM1867.28 1205.63C1876.82 1138.8 1881.53 1001.41 1883.88 881.582C1885.06 821.484 1885.65 765.518 1885.94 724.579C1886.09 704.109 1886.16 687.392 1886.2 675.79C1886.22 669.989 1886.23 665.467 1886.23 662.394C1886.23 660.857 1886.23 659.682 1886.23 658.891C1886.24 658.496 1886.24 658.196 1886.24 657.995C1886.24 657.894 1886.24 657.818 1886.24 657.767C1886.24 657.742 1886.24 657.722 1886.24 657.709C1886.24 657.703 1886.24 657.698 1886.24 657.695C1886.24 657.691 1886.24 657.689 1873.74 657.689C1861.24 657.689 1861.24 657.691 1861.24 657.694C1861.24 657.697 1861.24 657.701 1861.24 657.707C1861.24 657.719 1861.24 657.738 1861.24 657.763C1861.24 657.812 1861.24 657.887 1861.24 657.986C1861.24 658.184 1861.24 658.481 1861.23 658.873C1861.23 659.658 1861.23 660.826 1861.23 662.356C1861.23 665.416 1861.22 669.925 1861.2 675.711C1861.16 687.283 1861.09 703.966 1860.94 724.4C1860.65 765.269 1860.06 821.127 1858.88 881.092C1856.52 1001.39 1851.81 1137.09 1842.53 1202.09L1867.28 1205.63ZM1401.79 1404.65C1417.31 1406.02 1452.72 1402.81 1496.09 1395.7C1540.01 1388.5 1593.56 1377.06 1646.05 1361.27C1698.42 1345.52 1750.36 1325.26 1790.66 1300.21C1830.44 1275.48 1861.75 1244.28 1867.28 1205.63L1842.53 1202.09C1838.63 1229.35 1815.61 1255.27 1777.46 1278.98C1739.83 1302.36 1690.26 1321.86 1638.85 1337.33C1587.57 1352.75 1535.09 1363.98 1492.04 1371.03C1448.45 1378.18 1415.97 1380.81 1404 1379.74L1401.79 1404.65ZM1443.6 1474.24C1409.66 1465.75 1390.75 1443.89 1385.54 1426.81C1382.9 1418.12 1384.14 1412.25 1386.15 1409.29C1387.75 1406.94 1391.66 1403.75 1401.79 1404.65L1404 1379.74C1387.61 1378.29 1373.55 1383.34 1365.46 1395.25C1357.79 1406.56 1357.64 1421 1361.63 1434.09C1369.69 1460.56 1396.13 1488.14 1437.53 1498.49L1443.6 1474.24ZM1515.38 1590.21C1528.17 1579.76 1536.79 1568 1539.33 1554.96C1541.95 1541.48 1537.61 1529.03 1529.35 1518.62C1513.59 1498.76 1481.87 1483.8 1443.6 1474.24L1437.53 1498.49C1474.6 1507.75 1499.37 1521.05 1509.76 1534.15C1514.57 1540.21 1515.71 1545.43 1514.79 1550.19C1513.78 1555.39 1509.83 1562.46 1499.56 1570.85L1515.38 1590.21ZM1209.92 1629.8C1260.06 1649.86 1324.4 1649.53 1381.13 1639.94C1409.69 1635.11 1436.79 1627.86 1459.84 1619.33C1482.69 1610.87 1502.33 1600.88 1515.38 1590.21L1499.56 1570.85C1489.57 1579.02 1472.85 1587.86 1451.16 1595.88C1429.68 1603.83 1404.1 1610.7 1376.96 1615.29C1322.3 1624.53 1263.23 1624.2 1219.21 1606.59L1209.92 1629.8ZM1100.77 1501.55C1106.96 1521.11 1114.64 1545.61 1130.62 1568.88C1146.81 1592.46 1171.14 1614.29 1209.92 1629.8L1219.21 1606.59C1184.98 1592.9 1164.61 1574.21 1151.23 1554.73C1137.63 1534.93 1130.88 1513.83 1124.61 1494.01L1100.77 1501.55ZM1090.38 1473.12C1094.08 1480.52 1097.07 1489.86 1100.77 1501.55L1124.61 1494.01C1121.08 1482.87 1117.51 1471.47 1112.74 1461.94L1090.38 1473.12ZM824.651 1478.71C827.95 1477.06 834.375 1474.97 844.026 1472.76C853.412 1470.62 865.045 1468.54 878.212 1466.66C904.535 1462.9 936.469 1459.99 967.837 1458.83C999.291 1457.67 1029.7 1458.28 1053.13 1461.38C1064.89 1462.94 1074.35 1465.06 1081.13 1467.63C1088.45 1470.4 1090.21 1472.78 1090.38 1473.12L1112.74 1461.94C1108.2 1452.86 1098.79 1447.59 1089.99 1444.25C1080.66 1440.72 1069.08 1438.28 1056.42 1436.6C1031 1433.23 999.021 1432.66 966.912 1433.85C934.717 1435.04 901.91 1438.02 874.676 1441.91C861.064 1443.86 848.714 1446.05 838.458 1448.39C828.465 1450.67 819.588 1453.29 813.471 1456.35L824.651 1478.71ZM803.98 1519.11C805.285 1505.12 806.108 1497.95 808.606 1492.51C810.596 1488.18 814.203 1483.93 824.651 1478.71L813.471 1456.35C799.979 1463.09 791.058 1470.82 785.886 1482.08C781.223 1492.24 780.254 1504.29 779.088 1516.78L803.98 1519.11ZM804.034 1517.95V1517.95H779.034V1517.95H804.034ZM793.521 1583.56C800.621 1555.16 802.55 1534.44 803.98 1519.11L779.088 1516.78C777.687 1531.81 775.893 1550.99 769.267 1577.5L793.521 1583.56ZM611.893 1687.2C641.254 1687.2 680.72 1682.34 715.692 1667.35C750.765 1652.32 782.825 1626.34 793.521 1583.56L769.267 1577.5C761.129 1610.05 736.688 1631.16 705.844 1644.37C674.899 1657.64 639.031 1662.2 611.893 1662.2V1687.2ZM429.891 1599.36C429.891 1618.21 439.486 1633.2 452.856 1644.51C466.037 1655.67 483.597 1663.94 502.001 1670.08C538.875 1682.37 582.638 1687.2 611.893 1687.2V1662.2C584.647 1662.2 543.659 1657.61 509.907 1646.36C492.998 1640.72 478.777 1633.7 469.005 1625.43C459.421 1617.32 454.891 1608.76 454.891 1599.36H429.891ZM494.488 1538.91C480.499 1542.72 464.376 1546.97 452.096 1555.33C445.652 1559.72 439.934 1565.41 435.899 1573C431.87 1580.59 429.891 1589.36 429.891 1599.36H454.891C454.891 1592.71 456.184 1588.11 457.975 1584.74C459.762 1581.38 462.413 1578.55 466.164 1576C474.272 1570.48 485.841 1567.18 501.058 1563.04L494.488 1538.91ZM546.553 1515.19C533.841 1527.9 515.493 1533.19 494.488 1538.91L501.058 1563.04C520.738 1557.68 546.015 1551.08 564.231 1532.87L546.553 1515.19ZM544.991 1436.8C550.433 1444.96 557.092 1459.16 558.999 1474.27C560.87 1489.11 558.11 1503.63 546.553 1515.19L564.231 1532.87C582.808 1514.29 586.326 1491.15 583.802 1471.14C581.314 1451.42 572.907 1433.6 565.793 1422.93L544.991 1436.8ZM53.2217 1147.36C53.2217 1169.5 62.7489 1196.62 81.494 1224.89C100.381 1253.38 129.146 1283.85 169.016 1312.85C248.801 1370.87 373.414 1423.28 554.084 1442.29L556.701 1417.43C379.534 1398.78 259.312 1347.6 183.721 1292.63C145.903 1265.12 119.344 1236.74 102.33 1211.08C85.1738 1185.2 78.2217 1162.88 78.2217 1147.36H53.2217ZM1590.01 1203.72C1605.78 1201.86 1617.41 1190.76 1624.19 1177.41C1631.03 1163.97 1633.81 1146.91 1631.73 1129.31L1606.9 1132.25C1608.49 1145.63 1606.21 1157.62 1601.91 1166.08C1597.56 1174.64 1591.96 1178.32 1587.07 1178.9L1590.01 1203.72ZM1532.09 1141.09C1534.17 1158.69 1540.86 1174.63 1550.63 1186.11C1560.35 1197.51 1574.24 1205.59 1590.01 1203.72L1587.07 1178.9C1582.19 1179.47 1575.89 1177.2 1569.66 1169.89C1563.5 1162.66 1558.5 1151.54 1556.92 1138.15L1532.09 1141.09ZM1573.81 1066.68C1558.04 1068.54 1546.42 1079.64 1539.63 1092.98C1532.79 1106.43 1530.01 1123.48 1532.09 1141.09L1556.92 1138.15C1555.34 1124.77 1557.61 1112.78 1561.91 1104.31C1566.27 1095.75 1571.86 1092.08 1576.75 1091.5L1573.81 1066.68ZM1631.73 1129.31C1629.65 1111.71 1622.97 1095.77 1613.19 1084.29C1603.48 1072.89 1589.58 1064.81 1573.81 1066.68L1576.75 1091.5C1581.63 1090.93 1587.93 1093.19 1594.16 1100.5C1600.32 1107.73 1605.32 1118.86 1606.9 1132.25L1631.73 1129.31ZM1066.32 1265.61C1082.09 1263.75 1093.71 1252.65 1100.5 1239.3C1107.33 1225.86 1110.12 1208.8 1108.04 1191.2L1083.21 1194.13C1084.79 1207.52 1082.52 1219.51 1078.22 1227.97C1073.86 1236.53 1068.27 1240.21 1063.38 1240.78L1066.32 1265.61ZM1008.4 1202.98C1010.48 1220.58 1017.16 1236.52 1026.94 1248C1036.65 1259.4 1050.55 1267.48 1066.32 1265.61L1063.38 1240.78C1058.5 1241.36 1052.2 1239.09 1045.97 1231.78C1039.81 1224.55 1034.81 1213.43 1033.23 1200.04L1008.4 1202.98ZM1050.12 1128.56C1034.35 1130.43 1022.72 1141.53 1015.94 1154.87C1009.1 1168.32 1006.32 1185.37 1008.4 1202.98L1033.23 1200.04C1031.64 1186.66 1033.92 1174.67 1038.22 1166.2C1042.57 1157.64 1048.17 1153.97 1053.05 1153.39L1050.12 1128.56ZM1108.04 1191.2C1105.96 1173.6 1099.27 1157.66 1089.5 1146.18C1079.78 1134.78 1065.89 1126.7 1050.12 1128.56L1053.05 1153.39C1057.94 1152.81 1064.24 1155.08 1070.47 1162.39C1076.62 1169.62 1081.63 1180.75 1083.21 1194.13L1108.04 1191.2Z" fill="#FCD6F6"/>
<path d="M462.663 372.309C554.863 280.739 721.508 155.668 744.991 300.482C768.474 445.297 574.432 401.418 462.663 372.309Z" stroke="#FCD6F6" stroke-width="25" stroke-linecap="round"/>
<path d="M739.963 110.709C868.631 128.885 1068.96 186.16 967.73 292.341C866.496 398.523 784.27 217.37 739.963 110.709Z" stroke="#FCD6F6" stroke-width="25" stroke-linecap="round"/>
<path d="M770.528 498.762C763.871 419.496 791.104 303.698 866.838 371.299C942.573 438.899 826.983 475.829 770.528 498.762Z" stroke="#FCD6F6" stroke-width="25" stroke-linecap="round"/>
<path d="M1102.44 438.924C1024.46 454.631 906.3 440.864 964.765 357.874C1023.23 274.883 1073.18 385.473 1102.44 438.924Z" stroke="#FCD6F6" stroke-width="25" stroke-linecap="round"/>
<path d="M1355.04 445.308C1274.56 390.273 1242.5 203.347 1378.17 229.194C1513.84 255.041 1429.06 445.562 1355.04 445.308Z" stroke="#FCD6F6" stroke-width="25" stroke-linecap="round"/>
</svg>
