<svg width="1840" height="1684" viewBox="0 0 1840 1684" fill="none" xmlns="http://www.w3.org/2000/svg">
<path d="M92.7371 1358.36C-142.855 1041.61 331.526 446.52 509.823 231.9C497.651 298.243 480.903 615.585 600.168 619.961C749.249 625.432 1223.11 701.682 1269.4 624.303C1306.44 562.4 1338.46 279.305 1338.74 237.277C2084.14 988.511 1756.61 1523.39 1603.52 1592.19C1450.44 1661 387.228 1754.3 92.7371 1358.36Z" stroke="#81F4E1" stroke-width="50" stroke-linecap="round"/>
<path d="M594.663 619.926C477.775 596.72 495.76 299.859 507.933 233.504C507.933 233.504 502.385 74.8389 694.672 45.5482C914.462 12.0681 1177.39 26.1597 1267.38 90.9254C1314.72 124.998 1337.02 216.363 1336.87 238.882C1336.6 280.917 1321.09 499.652 1263.92 624.267C1226.45 705.939 741.246 649.027 594.663 619.926Z" fill="#81F4E1" stroke="#81F4E1" stroke-width="50" stroke-linecap="round"/>
<ellipse cx="366.415" cy="1193.57" rx="50" ry="78" transform="rotate(9.93956 366.415 1193.57)" fill="#81F4E1"/>
<ellipse cx="1056.89" cy="1314.57" rx="50" ry="78" transform="rotate(9.93956 1056.89 1314.57)" fill="#81F4E1"/>
</svg>
