<svg width="2178" height="1098" viewBox="0 0 2178 1098" fill="none" xmlns="http://www.w3.org/2000/svg">
<path d="M471.111 465.131C658.913 484.588 854.825 500.646 926.117 507.091C929.178 384.565 953.26 255.56 1012.87 134.591C872.95 123.887 731.336 114.821 605.66 107.779C527.871 234.893 487.423 355.896 471.111 465.131Z" fill="#56CBF9"/>
<path d="M932.229 26.2096C814.727 42.5468 629.641 91.533 605.66 107.779C731.336 114.821 872.95 123.887 1012.87 134.591C1056.9 127.623 1174.84 79.9966 1228.31 57.0543C1088.3 40.3735 977.66 26.7996 932.229 26.2096Z" fill="#56CBF9"/>
<path d="M559.182 936.878C662.841 980.84 900.979 1057.1 1024.26 1010.46C978.763 912.698 920.807 719.645 926.117 507.091C854.825 500.646 658.913 484.588 471.111 465.131C438.095 686.22 503.95 859.102 559.182 936.878Z" fill="#56CBF9"/>
<path d="M1777.57 500.59C1731.86 532.02 1029.51 517.606 946.65 509.034C941.895 508.543 934.966 507.891 926.117 507.091M1777.57 500.59C1823.29 469.159 1787.11 296.503 1760.98 246.163M1777.57 500.59C1875.44 494.883 2078.4 479.369 2107.36 462.961C2143.55 442.45 2152 432.798 2150.79 396.604C2149.58 360.409 2159.24 244.585 2142.34 222.868C2131.9 209.442 2133.91 197.861 2122.14 190.975M1777.57 500.59C1860.45 575.819 1832.82 661.753 1808.64 695.316C1823.45 711.975 1850.01 760.843 1837.79 823.038C1822.52 900.783 1712.85 917.442 1712.85 924.383C1733.67 1125.68 1369.94 1002.13 1363 1002.13C1307.47 1125.41 1114.03 1059.05 1024.26 1010.46M1760.98 246.163C1780.17 160.873 2015.66 184.26 2078.4 184.26C2102.35 184.26 2114.87 186.722 2122.14 190.975M1760.98 246.163C1738.24 202.337 1381.43 162.785 1012.87 134.591M2122.14 190.975C2116.85 188.554 2054.27 133.588 1722.48 108.251C1552.95 95.305 1374.6 74.4836 1228.31 57.0543M932.229 26.2096C839.329 25.0031 408.611 26.2096 357.938 26.2096C307.265 26.2096 156.858 64.7874 67.9784 104.044M932.229 26.2096C814.727 42.5468 629.641 91.533 605.66 107.779M932.229 26.2096C977.66 26.7996 1088.3 40.3735 1228.31 57.0543M67.9784 104.044C93.8199 92.6343 135.866 95.9557 186.243 91.533C212.256 89.2492 384.217 95.3714 605.66 107.779M67.9784 104.044C52.954 110.677 43.4074 122.291 40.8862 143.3C32.3143 214.733 0.884029 357.598 60.8873 400.457C83.3993 416.537 202.035 434.628 345.874 451.41M345.874 451.41C284.164 508.186 187.954 646.448 296.796 745.294C263.014 825.352 268.197 975.75 559.182 936.878M345.874 451.41C386.162 456.111 428.427 460.709 471.111 465.131M559.182 936.878C662.841 980.84 900.979 1057.1 1024.26 1010.46M559.182 936.878C503.95 859.102 438.095 686.22 471.111 465.131M1024.26 1010.46C978.763 912.698 920.807 719.645 926.117 507.091M605.66 107.779C731.336 114.821 872.95 123.887 1012.87 134.591M605.66 107.779C527.871 234.893 487.423 355.896 471.111 465.131M1228.31 57.0543C1174.84 79.9966 1056.9 127.623 1012.87 134.591M1012.87 134.591C953.26 255.56 929.178 384.565 926.117 507.091M471.111 465.131C658.913 484.588 854.825 500.646 926.117 507.091" stroke="#56CBF9" stroke-width="50"/>
<ellipse cx="1262.59" cy="812.52" rx="39.3901" ry="62.1948" fill="#56CBF9"/>
<ellipse cx="1577.73" cy="792.393" rx="39.3901" ry="62.1948" fill="#56CBF9"/>
</svg>
